<svg xmlns="http://www.w3.org/2000/svg" xmlns:xlink="http://www.w3.org/1999/xlink" width="500" zoomAndPan="magnify" viewBox="0 0 375 374.999991" height="500" preserveAspectRatio="xMidYMid meet" version="1.0"><defs><g/><clipPath id="3ac269e0df"><path d="M 95.230469 91 L 273 91 L 273 233 L 95.230469 233 Z M 95.230469 91 " clip-rule="nonzero"/></clipPath><clipPath id="7064346041"><path d="M 103 92 L 287.980469 92 L 287.980469 237.75 L 103 237.75 Z M 103 92 " clip-rule="nonzero"/></clipPath></defs><path fill="#fce170" d="M 230.695312 98.796875 C 233.164062 98.980469 235.796875 99.222656 237.734375 100.765625 C 241.316406 103.625 240.691406 109.148438 239.699219 113.625 C 234.371094 137.671875 228.371094 161.570312 221.71875 185.285156 C 221.25 186.953125 220.710938 188.722656 219.378906 189.832031 C 215.714844 192.808594 209.6875 189.390625 205.957031 188.199219 C 201.914062 186.90625 198.21875 186.445312 194.015625 186.355469 C 183.59375 186.136719 173.4375 181.59375 163.597656 178.484375 C 161.652344 177.867188 159.449219 177.007812 158.8125 175.070312 C 158.425781 173.878906 158.75 172.589844 159.078125 171.382812 C 161.632812 161.988281 164.253906 152.609375 166.746094 143.195312 C 168.050781 138.253906 169.359375 133.3125 170.664062 128.371094 C 171.773438 124.171875 174.378906 118.644531 174.378906 114.324219 C 175.664062 109.464844 176.710938 96.320312 182.414062 94.335938 C 184.5625 93.589844 186.847656 94.890625 188.910156 95.375 C 192.808594 96.292969 196.902344 96.308594 200.886719 96.601562 C 210.824219 97.335938 220.757812 98.066406 230.695312 98.796875 Z M 230.695312 98.796875 " fill-opacity="1" fill-rule="nonzero"/><path fill="#75baa3" d="M 109.097656 88.144531 C 109.535156 86.300781 110.023438 84.371094 111.304688 82.972656 C 113.226562 80.875 116.347656 80.53125 119.179688 80.320312 C 129.050781 79.585938 138.925781 78.851562 148.796875 78.113281 C 152.886719 77.808594 157.59375 77.734375 160.363281 80.761719 C 162.269531 82.851562 162.6875 85.859375 162.984375 88.671875 C 166.152344 118.398438 165.980469 148.476562 162.480469 178.164062 C 146.667969 177.386719 130.902344 175.621094 115.308594 172.886719 C 113.183594 172.511719 110.910156 172.039062 109.441406 170.460938 C 108.195312 169.113281 107.777344 167.21875 107.40625 165.421875 C 106.03125 158.722656 104.65625 152.019531 103.28125 145.320312 C 102.003906 139.09375 100.148438 133.402344 101.378906 127.15625 C 102.671875 120.589844 103.613281 113.949219 104.914062 107.378906 C 106.097656 101.421875 109.097656 94.175781 109.097656 88.144531 Z M 109.097656 88.144531 " fill-opacity="1" fill-rule="nonzero"/><path fill="#403651" d="M 181.964844 57.101562 C 182.457031 60.171875 182.894531 63.292969 183.101562 66.398438 C 183.164062 67.328125 181.609375 67.542969 181.46875 66.621094 C 180.625 61.011719 180.539062 55.042969 178.46875 49.691406 C 174.785156 40.164062 162.386719 42.105469 156.179688 47.761719 C 152.925781 50.726562 150.789062 54.691406 150.039062 59.027344 C 149.617188 61.453125 149.636719 63.976562 150.011719 66.402344 C 150.363281 68.652344 151.253906 70.714844 151.757812 72.914062 C 151.824219 73.203125 151.429688 73.503906 151.210938 73.230469 C 149.449219 71.0625 148.761719 67.949219 148.414062 65.234375 C 148.054688 62.449219 148.253906 59.570312 148.953125 56.851562 C 151.242188 47.921875 160.039062 40.574219 169.503906 41.429688 C 174.203125 41.855469 178.109375 44.347656 179.941406 48.761719 C 181.039062 51.398438 181.515625 54.296875 181.964844 57.101562 Z M 232.242188 107.746094 C 230.308594 107.003906 228.25 106.757812 226.21875 106.410156 C 225.242188 106.246094 224.265625 106.078125 223.289062 105.910156 C 225.066406 97.1875 225.039062 87.207031 218.117188 80.875 C 215.042969 78.0625 210.960938 76.679688 206.828125 77.535156 C 204.820312 77.953125 202.933594 78.871094 201.332031 80.144531 C 199.957031 81.238281 198.089844 83.121094 198.0625 84.992188 C 198.054688 85.46875 198.617188 85.632812 198.941406 85.355469 C 199.597656 84.800781 199.957031 83.988281 200.511719 83.332031 C 201.144531 82.582031 201.851562 81.886719 202.636719 81.296875 C 204.148438 80.152344 205.9375 79.382812 207.816406 79.097656 C 211.726562 78.5 215.421875 80.308594 217.996094 83.183594 C 223.683594 89.546875 222.757812 97.804688 221.597656 105.621094 C 221.105469 105.539062 220.609375 105.453125 220.113281 105.371094 C 216.046875 104.675781 211.976562 103.988281 207.90625 103.296875 C 199.917969 101.941406 191.9375 100.488281 183.875 99.667969 C 183.433594 99.625 183.347656 100.335938 183.769531 100.4375 C 191.785156 102.371094 199.9375 103.65625 208.0625 105.046875 C 212.027344 105.726562 215.996094 106.40625 219.960938 107.082031 C 220.414062 107.160156 220.882812 107.257812 221.34375 107.347656 C 221.226562 108.128906 221.109375 108.90625 221.003906 109.667969 C 220.890625 110.503906 222.074219 110.898438 222.3125 110.03125 C 222.523438 109.253906 222.71875 108.457031 222.910156 107.648438 C 225.949219 108.265625 229.078125 108.929688 232.09375 108.835938 C 232.746094 108.816406 232.8125 107.964844 232.242188 107.746094 Z M 129.070312 82.785156 C 127.21875 82.808594 125.371094 82.871094 123.523438 82.972656 C 121.675781 83.074219 119.828125 83.214844 117.984375 83.402344 C 116.0625 83.597656 114.21875 84.003906 112.328125 84.367188 C 111.742188 84.480469 111.867188 85.464844 112.472656 85.417969 C 116.210938 85.125 119.984375 84.882812 123.734375 84.683594 C 125.582031 84.585938 127.433594 84.523438 129.285156 84.5 C 130.90625 84.480469 132.925781 84.765625 134.425781 84.0625 C 134.738281 83.917969 134.71875 83.421875 134.425781 83.269531 C 132.914062 82.476562 130.730469 82.761719 129.070312 82.785156 Z M 114.222656 90.023438 C 112.90625 95.660156 112.308594 101.492188 111.621094 107.230469 C 110.9375 112.945312 110.382812 118.671875 109.921875 124.40625 C 109.464844 130.136719 109.101562 135.875 108.828125 141.621094 C 108.695312 144.492188 108.574219 147.363281 108.5 150.238281 C 108.425781 153.125 108.210938 156.140625 108.601562 159.007812 C 108.675781 159.546875 109.582031 159.53125 109.671875 159.007812 C 110.128906 156.351562 110.066406 153.542969 110.167969 150.855469 C 110.269531 147.980469 110.378906 145.109375 110.515625 142.234375 C 110.789062 136.390625 111.152344 130.546875 111.601562 124.710938 C 112.046875 118.980469 112.570312 113.257812 113.148438 107.539062 C 113.734375 101.738281 114.609375 95.9375 114.914062 90.117188 C 114.933594 89.726562 114.3125 89.640625 114.222656 90.023438 Z M 114.222656 90.023438 " fill-opacity="1" fill-rule="nonzero"/><path fill="#0a3fdc" d="M 133.316406 88.273438 C 133.277344 87.910156 133.238281 87.550781 133.199219 87.191406 C 132.953125 84.921875 131.390625 79.945312 132.222656 77.835938 C 133.101562 75.597656 136.753906 74.675781 138.804688 74.027344 C 161.742188 66.804688 185.554688 62.371094 209.554688 60.859375 C 214.109375 93.742188 217.429688 126.824219 217.464844 160.015625 C 217.46875 161.820312 217.429688 163.761719 216.378906 165.230469 C 215.167969 166.925781 212.960938 167.519531 210.933594 167.988281 C 191.605469 172.472656 172.070312 176.074219 152.414062 178.78125 C 150.707031 179.019531 148.800781 179.195312 147.425781 178.15625 C 146.085938 177.144531 145.71875 175.324219 145.445312 173.667969 C 141.945312 152.375 138.632812 131.15625 135.871094 109.761719 C 134.949219 102.605469 134.097656 95.445312 133.316406 88.273438 Z M 133.316406 88.273438 " fill-opacity="1" fill-rule="nonzero"/><path fill="#403651" d="M 206.339844 64.40625 C 203.664062 64.46875 200.9375 65.070312 198.308594 65.554688 C 195.707031 66.035156 193.113281 66.5625 190.519531 67.082031 C 190.082031 67.171875 189.644531 67.269531 189.207031 67.359375 C 188.636719 63.667969 187.945312 59.992188 187.027344 56.382812 C 185.496094 50.367188 182.714844 44.699219 177.183594 41.394531 C 170.976562 37.683594 163.328125 39.296875 158.484375 44.488281 C 154.027344 49.269531 152.382812 56.203125 153.144531 62.578125 C 153.644531 66.726562 154.402344 70.949219 155.46875 75.058594 C 151.117188 76.195312 146.773438 77.367188 142.441406 78.601562 C 142.117188 78.496094 141.738281 78.460938 141.507812 78.4375 C 140.875 78.367188 140.238281 78.316406 139.605469 78.261719 C 138.929688 78.199219 138.25 78.128906 137.574219 78.066406 C 137.261719 78.039062 136.941406 78.003906 136.628906 78.003906 C 136.304688 78 135.886719 77.972656 135.585938 78.09375 C 135.355469 78.1875 135.199219 78.503906 135.425781 78.703125 C 135.886719 79.101562 136.675781 79.238281 137.261719 79.351562 C 137.949219 79.488281 138.640625 79.582031 139.335938 79.671875 C 139.964844 79.753906 140.601562 79.820312 141.234375 79.871094 C 141.742188 79.90625 142.84375 80.046875 143.011719 79.363281 C 147.269531 78.355469 151.535156 77.378906 155.804688 76.40625 C 156.25 78.003906 156.742188 79.578125 157.304688 81.117188 C 157.539062 81.769531 158.484375 81.515625 158.347656 80.828125 C 158.03125 79.234375 157.6875 77.640625 157.351562 76.050781 C 163.078125 74.75 168.8125 73.46875 174.542969 72.207031 C 178.953125 71.230469 183.375 70.308594 187.796875 69.40625 C 188.023438 71.007812 188.230469 72.617188 188.417969 74.21875 C 188.542969 75.308594 190.269531 75.320312 190.140625 74.21875 C 189.941406 72.496094 189.714844 70.773438 189.464844 69.050781 C 189.769531 68.988281 190.074219 68.921875 190.378906 68.859375 C 192.972656 68.335938 195.570312 67.832031 198.167969 67.324219 C 200.925781 66.789062 203.824219 66.359375 206.480469 65.429688 C 207.011719 65.246094 206.957031 64.394531 206.339844 64.40625 Z M 174.386719 70.476562 C 168.574219 71.761719 162.804688 73.160156 157.058594 74.640625 C 156.453125 71.796875 155.863281 68.953125 155.375 66.085938 C 154.359375 60.132812 154.316406 54.257812 157.429688 48.824219 C 160.929688 42.714844 168.402344 39.027344 175.113281 42.234375 C 180.679688 44.894531 183.636719 50.351562 185.164062 56.058594 C 186.183594 59.878906 186.929688 63.785156 187.53125 67.710938 C 183.144531 68.605469 178.757812 69.511719 174.386719 70.476562 Z M 174.386719 70.476562 " fill-opacity="1" fill-rule="nonzero"/><path fill="#403651" d="M 145.410156 113.851562 C 144.886719 108.441406 144.277344 103.035156 143.566406 97.640625 C 143.238281 95.136719 142.890625 92.636719 142.515625 90.140625 C 142.097656 87.359375 141.886719 84.367188 141.011719 81.691406 C 140.878906 81.285156 140.269531 81.351562 140.261719 81.789062 C 140.214844 84.609375 140.851562 87.523438 141.191406 90.320312 C 141.511719 92.960938 141.828125 95.605469 142.128906 98.253906 C 142.738281 103.652344 143.300781 109.054688 143.804688 114.464844 C 144.308594 119.878906 144.730469 125.296875 145.101562 130.71875 C 145.464844 136.035156 145.3125 141.585938 146.296875 146.828125 C 146.410156 147.425781 147.222656 147.214844 147.28125 146.695312 C 147.859375 141.269531 147.089844 135.535156 146.738281 130.105469 C 146.386719 124.683594 145.933594 119.261719 145.410156 113.851562 Z M 145.410156 113.851562 " fill-opacity="1" fill-rule="nonzero"/><g clip-path="url(#3ac269e0df)"><path fill="#fffcf0" d="M 272.074219 97.492188 C 270.96875 95.910156 269.667969 94.703125 267.78125 94.1875 C 266.917969 93.953125 265.988281 93.847656 265.105469 93.6875 C 263.320312 93.355469 261.535156 93.035156 259.746094 92.722656 C 257.957031 92.40625 256.160156 92.132812 254.359375 91.871094 C 253.09375 91.691406 251.824219 91.476562 250.554688 91.34375 C 248.609375 91.136719 247.085938 92.074219 245.46875 93.160156 C 243.164062 94.703125 241.171875 103.792969 240.136719 107.84375 C 239.8125 109.109375 239.464844 110.367188 239.136719 111.632812 C 237.652344 111.539062 236.160156 111.550781 234.671875 111.542969 C 231.820312 111.523438 228.964844 111.507812 226.109375 111.496094 C 219.921875 111.46875 213.738281 111.460938 207.550781 111.46875 C 195.417969 111.480469 183.285156 111.554688 171.152344 111.6875 C 159.015625 111.824219 146.886719 112.019531 134.753906 112.273438 C 128.570312 112.40625 122.382812 112.496094 116.203125 112.714844 C 110.539062 112.917969 103.507812 112.410156 98.488281 115.417969 C 97.761719 115.855469 97.253906 116.519531 96.929688 117.265625 C 95.878906 118.226562 95.199219 119.570312 95.226562 121.109375 C 95.292969 125.457031 96.589844 129.9375 97.445312 134.191406 C 98.285156 138.371094 99.125 142.550781 99.964844 146.730469 C 101.644531 155.082031 103.109375 163.507812 105.035156 171.804688 C 105.570312 174.097656 107.703125 175.660156 109.964844 175.917969 C 113.304688 178.949219 118.640625 179.117188 122.898438 179.859375 C 127.785156 180.714844 132.664062 181.574219 137.546875 182.445312 C 147.078125 184.148438 156.609375 185.84375 166.132812 187.585938 C 175.65625 189.324219 185.171875 191.105469 194.683594 192.917969 C 199.324219 193.800781 203.960938 194.695312 208.597656 195.597656 C 211.074219 196.078125 213.875 196.894531 216.667969 197.484375 C 216.230469 199.367188 215.777344 201.375 215.589844 203.332031 C 213.792969 203.351562 212.023438 203.457031 210.476562 203.460938 C 205.484375 203.476562 200.492188 203.480469 195.5 203.464844 C 185.753906 203.429688 176.007812 203.324219 166.261719 203.152344 C 156.519531 202.976562 146.777344 202.730469 137.035156 202.417969 C 132.28125 202.265625 127.53125 202.097656 122.78125 201.910156 C 117.648438 201.707031 112.394531 200.601562 107.828125 203.398438 C 104.917969 205.179688 105.316406 208.828125 107.828125 210.6875 C 111.894531 213.699219 117.214844 213.050781 122.070312 213.246094 C 127.058594 213.449219 132.046875 213.632812 137.035156 213.796875 C 147.011719 214.128906 156.996094 214.386719 166.976562 214.570312 C 176.722656 214.75 186.46875 214.859375 196.214844 214.898438 C 201.203125 214.917969 206.199219 214.945312 211.1875 214.90625 C 216.207031 214.867188 221.535156 215.378906 225.660156 212.171875 C 227.210938 210.964844 227.21875 209.140625 226.523438 207.589844 C 227.796875 204.335938 227.851562 200.175781 228.453125 197.03125 C 229.382812 192.179688 230.4375 187.351562 231.582031 182.542969 C 233.871094 172.914062 236.519531 163.371094 239.242188 153.855469 C 241.96875 144.324219 244.773438 134.816406 247.382812 125.253906 C 248.628906 120.691406 249.835938 116.121094 250.910156 111.515625 C 251.535156 108.816406 252.359375 105.921875 252.757812 103.03125 C 254.519531 103.359375 256.28125 103.683594 258.042969 103.996094 C 259.574219 104.265625 261.105469 104.546875 262.636719 104.828125 C 263.589844 105.007812 264.539062 105.199219 265.5 105.328125 C 267.234375 105.5625 268.820312 105.257812 270.292969 104.285156 C 272.394531 102.894531 273.675781 99.796875 272.074219 97.492188 Z M 115.769531 167.441406 C 114.722656 161.5625 113.472656 155.710938 112.238281 149.863281 C 116.0625 150.378906 119.9375 150.621094 123.8125 150.75 C 123.847656 153.65625 123.882812 156.558594 123.917969 159.460938 C 123.953125 162.488281 123.902344 165.554688 123.96875 168.609375 C 121.3125 168.101562 118.496094 167.449219 115.769531 167.441406 Z M 123.734375 129.714844 C 123.6875 132.917969 123.722656 136.121094 123.738281 139.324219 C 119.203125 139.289062 114.671875 139.433594 110.199219 139.980469 C 109.667969 137.363281 109.136719 134.75 108.605469 132.132812 C 108.089844 129.59375 107.6875 126.890625 107.101562 124.269531 C 110.171875 124.398438 113.308594 124.164062 116.203125 124.117188 C 118.804688 124.074219 121.40625 123.996094 124.011719 123.929688 C 123.777344 125.929688 123.757812 127.960938 123.734375 129.714844 Z M 146.628906 172.527344 C 144.378906 172.132812 142.132812 171.714844 139.878906 171.328125 C 138.453125 171.082031 137.023438 170.84375 135.59375 170.601562 C 135.722656 166.539062 135.382812 162.363281 135.332031 158.359375 L 135.234375 150.988281 C 139.503906 151.082031 143.777344 151.175781 148.046875 151.269531 C 147.667969 158.359375 147.203125 165.449219 146.628906 172.527344 Z M 148.863281 130.257812 C 148.773438 133.46875 148.660156 136.671875 148.550781 139.878906 C 144.304688 139.785156 140.058594 139.691406 135.808594 139.597656 C 135.550781 139.59375 135.289062 139.585938 135.027344 139.578125 C 134.960938 136.289062 134.90625 133 134.78125 129.714844 C 134.710938 127.902344 134.648438 125.765625 134.34375 123.679688 C 134.480469 123.675781 134.617188 123.671875 134.753906 123.671875 C 139.511719 123.566406 144.269531 123.519531 149.023438 123.433594 C 148.808594 125.898438 148.910156 128.433594 148.863281 130.257812 Z M 170.671875 176.828125 C 169.941406 176.695312 169.210938 176.554688 168.476562 176.417969 C 164.933594 175.769531 161.382812 175.164062 157.835938 174.523438 C 158.523438 166.863281 159.011719 159.195312 159.398438 151.515625 C 162 151.574219 164.601562 151.632812 167.207031 151.6875 C 169.464844 151.738281 171.722656 151.789062 173.980469 151.835938 C 172.921875 160.175781 171.722656 168.492188 170.671875 176.828125 Z M 176.582031 129.863281 C 176.140625 133.394531 175.746094 136.929688 175.351562 140.464844 C 172.636719 140.40625 169.921875 140.347656 167.207031 140.289062 C 164.773438 140.234375 162.34375 140.179688 159.910156 140.128906 C 160.0625 135.730469 160.203125 131.320312 160.109375 126.925781 C 160.089844 125.96875 160.035156 124.652344 159.871094 123.253906 C 163.632812 123.199219 167.390625 123.113281 171.152344 123.070312 C 173.257812 123.042969 175.363281 123.050781 177.472656 123.027344 C 177.105469 125.296875 176.863281 127.585938 176.582031 129.863281 Z M 195.488281 166.851562 C 194.414062 171.28125 192.691406 176.097656 191.910156 180.792969 C 188.539062 180.164062 185.167969 179.535156 181.792969 178.90625 C 183.246094 170.015625 184.308594 161.035156 185.363281 152.085938 C 189.910156 152.1875 194.457031 152.285156 199.003906 152.386719 C 197.835938 157.207031 196.664062 162.027344 195.488281 166.851562 Z M 186.796875 140.71875 C 187.578125 134.820312 188.28125 128.835938 188.03125 122.960938 C 194.128906 122.917969 200.226562 122.859375 206.324219 122.84375 C 205.390625 125.769531 204.785156 128.84375 204.03125 131.820312 C 203.25 134.890625 202.519531 137.96875 201.773438 141.046875 C 196.78125 140.9375 191.789062 140.828125 186.796875 140.71875 Z M 220.390625 180.15625 C 219.945312 182.042969 219.527344 183.933594 219.109375 185.824219 C 216.808594 185.40625 214.472656 185.109375 212.335938 184.695312 C 209.398438 184.121094 206.457031 183.5625 203.519531 182.996094 C 204.8125 178.714844 205.503906 174.058594 206.511719 169.890625 C 207.90625 164.140625 209.296875 158.390625 210.6875 152.644531 C 216.320312 152.765625 221.953125 152.890625 227.585938 153.011719 C 225.023438 162.015625 222.539062 171.046875 220.390625 180.15625 Z M 230.828125 141.695312 C 230.785156 141.691406 230.753906 141.679688 230.710938 141.679688 C 224.945312 141.554688 219.183594 141.425781 213.417969 141.300781 C 213.9375 139.148438 214.476562 136.996094 214.976562 134.839844 C 215.878906 130.929688 217.132812 126.890625 217.484375 122.847656 C 220.359375 122.851562 223.234375 122.847656 226.109375 122.855469 C 228.964844 122.867188 231.820312 122.882812 234.671875 122.898438 C 235.160156 122.902344 235.652344 122.917969 236.144531 122.933594 C 234.425781 129.203125 232.628906 135.449219 230.828125 141.695312 Z M 128.601562 224.808594 C 129.035156 226.089844 129.269531 227.527344 128.75 228.773438 C 128.332031 229.769531 127.476562 230.527344 126.523438 231.035156 C 125.570312 231.539062 124.515625 231.820312 123.472656 232.097656 C 121.546875 232.605469 119.460938 233.109375 117.613281 232.367188 C 116.214844 231.808594 115.164062 230.59375 114.460938 229.261719 C 113.15625 226.792969 112.925781 223.722656 114.097656 221.191406 C 114.734375 219.820312 115.796875 218.652344 117.085938 217.863281 C 118.105469 217.242188 119.5 216.710938 120.714844 216.75 C 121.855469 216.785156 123.039062 217.703125 123.914062 218.367188 C 126.058594 219.992188 127.730469 222.253906 128.601562 224.808594 Z M 221.867188 224.808594 C 222.304688 226.089844 222.539062 227.527344 222.019531 228.773438 C 221.601562 229.769531 220.746094 230.527344 219.792969 231.035156 C 218.839844 231.539062 217.785156 231.820312 216.742188 232.097656 C 214.816406 232.605469 212.730469 233.109375 210.882812 232.367188 C 209.484375 231.808594 208.433594 230.59375 207.726562 229.261719 C 206.425781 226.792969 206.195312 223.722656 207.367188 221.191406 C 208.003906 219.820312 209.066406 218.652344 210.355469 217.863281 C 211.375 217.242188 212.769531 216.710938 213.984375 216.75 C 215.125 216.785156 216.308594 217.703125 217.183594 218.367188 C 219.328125 219.992188 221 222.253906 221.867188 224.808594 Z M 221.867188 224.808594 " fill-opacity="1" fill-rule="nonzero"/></g><g clip-path="url(#7064346041)"><path fill="#403651" d="M 124.351562 212.554688 C 120.71875 211.667969 116.730469 212.132812 113.46875 214 C 109.921875 216.027344 107.789062 219.5625 107.34375 223.582031 C 106.847656 228.054688 108.933594 232.40625 112.605469 234.945312 C 114.09375 235.976562 115.835938 236.582031 117.617188 236.878906 C 119.308594 237.304688 121.082031 237.425781 122.878906 237.183594 C 126.804688 236.65625 130.488281 234.484375 132.550781 231.046875 C 134.570312 227.679688 134.886719 223.382812 133.347656 219.78125 C 131.769531 216.089844 128.203125 213.488281 124.351562 212.554688 Z M 127.230469 228.101562 C 126.644531 230.027344 124.359375 230.976562 122.546875 231.363281 C 122.453125 231.382812 122.164062 231.429688 122.070312 231.445312 C 121.695312 231.484375 121.324219 231.507812 120.949219 231.507812 C 120.621094 231.507812 120.292969 231.488281 119.964844 231.464844 C 119.957031 231.464844 119.886719 231.457031 119.824219 231.445312 C 119.714844 231.425781 119.53125 231.390625 119.492188 231.382812 C 119.179688 231.320312 118.875 231.242188 118.570312 231.148438 C 118.453125 231.109375 117.929688 230.902344 117.867188 230.890625 C 114.816406 229.445312 113.6875 225.113281 115.039062 222.085938 C 116.324219 219.210938 119.335938 217.792969 122.355469 218.269531 C 124.40625 218.589844 126.257812 220.007812 127.105469 221.902344 C 127.5 222.785156 127.667969 223.898438 127.667969 225.019531 C 127.667969 226.105469 127.503906 227.199219 127.230469 228.101562 Z M 217.621094 212.554688 C 213.984375 211.667969 210 212.132812 206.738281 214 C 203.191406 216.027344 201.058594 219.5625 200.613281 223.582031 C 200.117188 228.054688 202.203125 232.40625 205.875 234.945312 C 207.363281 235.976562 209.105469 236.582031 210.886719 236.878906 C 212.578125 237.304688 214.351562 237.425781 216.148438 237.183594 C 220.074219 236.65625 223.757812 234.484375 225.820312 231.046875 C 227.839844 227.679688 228.15625 223.382812 226.617188 219.78125 C 225.039062 216.089844 221.46875 213.488281 217.621094 212.554688 Z M 220.5 228.101562 C 219.914062 230.027344 217.628906 230.976562 215.816406 231.363281 C 215.71875 231.382812 215.433594 231.429688 215.335938 231.445312 C 214.964844 231.484375 214.589844 231.507812 214.21875 231.507812 C 213.890625 231.507812 213.5625 231.488281 213.234375 231.464844 C 213.222656 231.464844 213.15625 231.457031 213.09375 231.445312 C 212.984375 231.425781 212.800781 231.390625 212.761719 231.382812 C 212.449219 231.320312 212.140625 231.242188 211.839844 231.148438 C 211.722656 231.109375 211.195312 230.902344 211.136719 230.890625 C 208.085938 229.445312 206.953125 225.113281 208.308594 222.085938 C 209.59375 219.210938 212.605469 217.792969 215.625 218.269531 C 217.675781 218.589844 219.523438 220.007812 220.371094 221.902344 C 220.765625 222.785156 220.9375 223.898438 220.9375 225.019531 C 220.9375 226.105469 220.773438 227.199219 220.5 228.101562 Z M 242.054688 123.644531 C 236.914062 123.976562 231.679688 123.570312 226.53125 123.472656 C 221.5625 123.375 216.59375 123.300781 211.625 123.242188 C 193.609375 123.027344 175.59375 123.046875 157.582031 123.300781 C 148.679688 123.425781 139.777344 123.609375 130.875 123.847656 C 126.324219 123.96875 121.769531 124.082031 117.214844 124.21875 C 112.667969 124.355469 108.109375 124.613281 103.558594 124.414062 C 102.886719 124.382812 102.921875 123.46875 103.558594 123.390625 C 108.699219 122.757812 113.910156 122.703125 119.078125 122.515625 C 124.046875 122.335938 129.011719 122.175781 133.980469 122.050781 C 151.988281 121.59375 170.003906 121.371094 188.019531 121.378906 C 196.921875 121.382812 205.828125 121.445312 214.730469 121.5625 C 219.285156 121.625 223.839844 121.699219 228.394531 121.792969 C 232.929688 121.882812 237.546875 121.761719 242.054688 122.289062 C 242.910156 122.386719 242.941406 123.585938 242.054688 123.644531 Z M 233.167969 153.859375 C 228.566406 154.070312 223.910156 153.753906 219.304688 153.660156 C 214.855469 153.570312 210.40625 153.488281 205.957031 153.410156 C 189.820312 153.128906 173.679688 152.894531 157.542969 152.496094 C 149.316406 152.292969 141.085938 152.054688 132.863281 151.71875 C 124.742188 151.386719 116.492188 151.230469 108.421875 150.183594 C 108.601562 150.878906 108.800781 151.570312 108.976562 152.269531 C 109.414062 154.03125 109.84375 155.800781 110.265625 157.566406 C 110.632812 159.117188 111.265625 160.890625 111.117188 162.496094 C 111.074219 162.972656 110.472656 163.179688 110.199219 162.742188 C 109.308594 161.332031 109.066406 159.398438 108.683594 157.792969 C 108.273438 156.09375 107.871094 154.386719 107.480469 152.679688 C 106.683594 149.191406 105.9375 145.707031 105.238281 142.199219 C 105.109375 141.550781 106.054688 141.277344 106.234375 141.921875 C 106.914062 144.34375 107.535156 146.777344 108.164062 149.210938 C 108.167969 149.210938 108.167969 149.210938 108.171875 149.210938 C 117.414062 149.070312 126.714844 149.816406 135.949219 150.128906 C 152.160156 150.675781 168.371094 151.046875 184.585938 151.332031 C 192.722656 151.476562 200.859375 151.605469 208.996094 151.753906 C 213.039062 151.824219 217.078125 151.902344 221.117188 151.988281 C 225.121094 152.070312 229.179688 151.992188 233.167969 152.375 C 234.109375 152.464844 234.136719 153.8125 233.167969 153.859375 Z M 202.589844 207.492188 C 197.109375 207.519531 191.628906 207.542969 186.152344 207.546875 C 175.085938 207.550781 164.027344 207.488281 152.964844 207.257812 C 152.460938 207.246094 152.464844 206.488281 152.964844 206.472656 C 164.027344 206.140625 175.085938 205.976562 186.152344 205.878906 C 191.628906 205.832031 197.109375 205.808594 202.589844 205.78125 C 208.167969 205.753906 213.765625 205.578125 219.335938 205.925781 C 220.15625 205.976562 220.152344 207.140625 219.335938 207.199219 C 213.769531 207.59375 208.167969 207.46875 202.589844 207.492188 Z M 287.894531 101.011719 C 287.855469 102.566406 287.347656 104.066406 286.84375 105.535156 C 286.191406 107.441406 285.285156 109.59375 283.359375 110.175781 C 282.355469 110.480469 281.28125 110.273438 280.253906 110.070312 C 274.269531 108.867188 268.085938 108.035156 262.222656 106.339844 C 260.453125 105.828125 258.324219 106.097656 257.78125 104 C 257.128906 101.46875 257.914062 98.230469 258.867188 95.875 C 258.960938 95.640625 259.0625 95.40625 259.175781 95.175781 C 259.449219 94.613281 259.78125 94.082031 260.226562 93.644531 C 262.511719 91.398438 267.382812 93.144531 270.085938 93.570312 C 274.195312 94.21875 278.300781 94.863281 282.410156 95.507812 C 283.757812 95.722656 285.175781 95.964844 286.230469 96.828125 C 287.433594 97.8125 287.933594 99.460938 287.894531 101.011719 Z M 287.894531 101.011719 " fill-opacity="1" fill-rule="nonzero"/></g><g fill="#ffffff" fill-opacity="1"><g transform="translate(109.075553, 290.276172)"><g><path d="M 29.875 -15.125 L 37.09375 -15.125 C 36.851562 -12.914062 36.222656 -10.859375 35.203125 -8.953125 C 34.191406 -7.054688 32.890625 -5.394531 31.296875 -3.96875 C 29.710938 -2.550781 27.90625 -1.4375 25.875 -0.625 C 23.851562 0.1875 21.707031 0.59375 19.4375 0.59375 C 16.988281 0.59375 14.695312 0.132812 12.5625 -0.78125 C 10.4375 -1.695312 8.566406 -2.96875 6.953125 -4.59375 C 5.347656 -6.21875 4.09375 -8.09375 3.1875 -10.21875 C 2.289062 -12.351562 1.84375 -14.644531 1.84375 -17.09375 C 1.84375 -19.550781 2.289062 -21.851562 3.1875 -24 C 4.09375 -26.144531 5.347656 -28.03125 6.953125 -29.65625 C 8.566406 -31.28125 10.4375 -32.550781 12.5625 -33.46875 C 14.695312 -34.382812 16.976562 -34.84375 19.40625 -34.84375 C 22.582031 -34.84375 25.507812 -34.082031 28.1875 -32.5625 C 30.875 -31.050781 32.984375 -29.039062 34.515625 -26.53125 L 28.953125 -22.578125 C 27.734375 -24.410156 26.285156 -25.78125 24.609375 -26.6875 C 22.941406 -27.59375 21.21875 -28.046875 19.4375 -28.046875 C 17.539062 -28.046875 15.8125 -27.550781 14.25 -26.5625 C 12.6875 -25.582031 11.441406 -24.265625 10.515625 -22.609375 C 9.597656 -20.960938 9.140625 -19.125 9.140625 -17.09375 C 9.140625 -15.101562 9.597656 -13.28125 10.515625 -11.625 C 11.441406 -9.96875 12.6875 -8.65625 14.25 -7.6875 C 15.8125 -6.726562 17.539062 -6.25 19.4375 -6.25 C 21.15625 -6.25 22.742188 -6.628906 24.203125 -7.390625 C 25.660156 -8.160156 26.894531 -9.210938 27.90625 -10.546875 C 28.914062 -11.878906 29.570312 -13.40625 29.875 -15.125 Z M 29.875 -15.125 "/></g></g></g><g fill="#ffffff" fill-opacity="1"><g transform="translate(148.004436, 290.276172)"><g><path d="M 19.578125 0.59375 C 17.128906 0.59375 14.832031 0.132812 12.6875 -0.78125 C 10.539062 -1.695312 8.65625 -2.96875 7.03125 -4.59375 C 5.40625 -6.21875 4.132812 -8.101562 3.21875 -10.25 C 2.300781 -12.394531 1.84375 -14.691406 1.84375 -17.140625 C 1.84375 -19.597656 2.300781 -21.890625 3.21875 -24.015625 C 4.132812 -26.148438 5.40625 -28.03125 7.03125 -29.65625 C 8.65625 -31.28125 10.53125 -32.550781 12.65625 -33.46875 C 14.789062 -34.382812 17.082031 -34.84375 19.53125 -34.84375 C 21.988281 -34.84375 24.289062 -34.382812 26.4375 -33.46875 C 28.582031 -32.550781 30.460938 -31.28125 32.078125 -29.65625 C 33.703125 -28.03125 34.972656 -26.148438 35.890625 -24.015625 C 36.816406 -21.890625 37.28125 -19.597656 37.28125 -17.140625 C 37.28125 -14.691406 36.816406 -12.394531 35.890625 -10.25 C 34.972656 -8.101562 33.703125 -6.21875 32.078125 -4.59375 C 30.460938 -2.96875 28.585938 -1.695312 26.453125 -0.78125 C 24.328125 0.132812 22.035156 0.59375 19.578125 0.59375 Z M 19.53125 -28.046875 C 17.601562 -28.046875 15.847656 -27.550781 14.265625 -26.5625 C 12.691406 -25.582031 11.441406 -24.273438 10.515625 -22.640625 C 9.597656 -21.003906 9.140625 -19.171875 9.140625 -17.140625 C 9.140625 -15.117188 9.597656 -13.28125 10.515625 -11.625 C 11.441406 -9.96875 12.691406 -8.65625 14.265625 -7.6875 C 15.847656 -6.726562 17.617188 -6.25 19.578125 -6.25 C 21.515625 -6.25 23.269531 -6.726562 24.84375 -7.6875 C 26.425781 -8.65625 27.675781 -9.96875 28.59375 -11.625 C 29.507812 -13.28125 29.96875 -15.117188 29.96875 -17.140625 C 29.96875 -19.171875 29.5 -21.003906 28.5625 -22.640625 C 27.632812 -24.273438 26.378906 -25.582031 24.796875 -26.5625 C 23.222656 -27.550781 21.46875 -28.046875 19.53125 -28.046875 Z M 19.53125 -28.046875 "/></g></g></g><g fill="#ffffff" fill-opacity="1"><g transform="translate(187.117158, 290.276172)"><g><path d="M 19.578125 0.59375 C 17.128906 0.59375 14.832031 0.132812 12.6875 -0.78125 C 10.539062 -1.695312 8.65625 -2.96875 7.03125 -4.59375 C 5.40625 -6.21875 4.132812 -8.101562 3.21875 -10.25 C 2.300781 -12.394531 1.84375 -14.691406 1.84375 -17.140625 C 1.84375 -19.597656 2.300781 -21.890625 3.21875 -24.015625 C 4.132812 -26.148438 5.40625 -28.03125 7.03125 -29.65625 C 8.65625 -31.28125 10.53125 -32.550781 12.65625 -33.46875 C 14.789062 -34.382812 17.082031 -34.84375 19.53125 -34.84375 C 21.988281 -34.84375 24.289062 -34.382812 26.4375 -33.46875 C 28.582031 -32.550781 30.460938 -31.28125 32.078125 -29.65625 C 33.703125 -28.03125 34.972656 -26.148438 35.890625 -24.015625 C 36.816406 -21.890625 37.28125 -19.597656 37.28125 -17.140625 C 37.28125 -14.691406 36.816406 -12.394531 35.890625 -10.25 C 34.972656 -8.101562 33.703125 -6.21875 32.078125 -4.59375 C 30.460938 -2.96875 28.585938 -1.695312 26.453125 -0.78125 C 24.328125 0.132812 22.035156 0.59375 19.578125 0.59375 Z M 19.53125 -28.046875 C 17.601562 -28.046875 15.847656 -27.550781 14.265625 -26.5625 C 12.691406 -25.582031 11.441406 -24.273438 10.515625 -22.640625 C 9.597656 -21.003906 9.140625 -19.171875 9.140625 -17.140625 C 9.140625 -15.117188 9.597656 -13.28125 10.515625 -11.625 C 11.441406 -9.96875 12.691406 -8.65625 14.265625 -7.6875 C 15.847656 -6.726562 17.617188 -6.25 19.578125 -6.25 C 21.515625 -6.25 23.269531 -6.726562 24.84375 -7.6875 C 26.425781 -8.65625 27.675781 -9.96875 28.59375 -11.625 C 29.507812 -13.28125 29.96875 -15.117188 29.96875 -17.140625 C 29.96875 -19.171875 29.5 -21.003906 28.5625 -22.640625 C 27.632812 -24.273438 26.378906 -25.582031 24.796875 -26.5625 C 23.222656 -27.550781 21.46875 -28.046875 19.53125 -28.046875 Z M 19.53125 -28.046875 "/></g></g></g><g fill="#ffffff" fill-opacity="1"><g transform="translate(226.22988, 290.276172)"><g><path d="M 3.265625 -34.25 L 10.390625 -34.25 L 10.390625 -6.4375 L 24.171875 -6.4375 L 24.171875 0 L 3.265625 0 Z M 3.265625 -34.25 "/></g></g></g><g fill="#ffffff" fill-opacity="1"><g transform="translate(87.148148, 336.51358)"><g><path d="M 20.578125 -10.421875 L 25.546875 -10.421875 C 25.378906 -8.898438 24.945312 -7.484375 24.25 -6.171875 C 23.550781 -4.859375 22.648438 -3.710938 21.546875 -2.734375 C 20.453125 -1.753906 19.207031 -0.984375 17.8125 -0.421875 C 16.425781 0.128906 14.953125 0.40625 13.390625 0.40625 C 11.703125 0.40625 10.125 0.09375 8.65625 -0.53125 C 7.1875 -1.164062 5.898438 -2.039062 4.796875 -3.15625 C 3.691406 -4.28125 2.828125 -5.578125 2.203125 -7.046875 C 1.578125 -8.515625 1.265625 -10.09375 1.265625 -11.78125 C 1.265625 -13.46875 1.578125 -15.046875 2.203125 -16.515625 C 2.828125 -17.992188 3.691406 -19.289062 4.796875 -20.40625 C 5.898438 -21.53125 7.1875 -22.410156 8.65625 -23.046875 C 10.125 -23.679688 11.691406 -24 13.359375 -24 C 15.554688 -24 17.578125 -23.472656 19.421875 -22.421875 C 21.265625 -21.378906 22.71875 -19.992188 23.78125 -18.265625 L 19.9375 -15.546875 C 19.09375 -16.804688 18.097656 -17.75 16.953125 -18.375 C 15.804688 -19 14.617188 -19.3125 13.390625 -19.3125 C 12.078125 -19.3125 10.882812 -18.972656 9.8125 -18.296875 C 8.738281 -17.617188 7.882812 -16.707031 7.25 -15.5625 C 6.613281 -14.425781 6.296875 -13.164062 6.296875 -11.78125 C 6.296875 -10.40625 6.613281 -9.144531 7.25 -8 C 7.882812 -6.863281 8.738281 -5.960938 9.8125 -5.296875 C 10.882812 -4.640625 12.078125 -4.3125 13.390625 -4.3125 C 14.566406 -4.3125 15.65625 -4.570312 16.65625 -5.09375 C 17.664062 -5.625 18.519531 -6.347656 19.21875 -7.265625 C 19.914062 -8.179688 20.367188 -9.234375 20.578125 -10.421875 Z M 20.578125 -10.421875 "/></g></g></g><g fill="#ffffff" fill-opacity="1"><g transform="translate(120.278459, 336.51358)"><g><path d="M 19.375 0 L 17.828125 -3.171875 L 6.390625 -3.171875 L 4.875 0 L -0.1875 0 L 12.25 -24 L 24.71875 0 Z M 12.0625 -14.9375 L 8.515625 -7.59375 L 15.671875 -7.59375 Z M 12.0625 -14.9375 "/></g></g></g><g fill="#ffffff" fill-opacity="1"><g transform="translate(151.130653, 336.51358)"><g><path d="M 9.625 -4.078125 L 7.15625 -4.078125 L 7.15625 0 L 2.25 0 L 2.25 -23.578125 L 10.453125 -23.578125 C 11.835938 -23.578125 13.117188 -23.335938 14.296875 -22.859375 C 15.484375 -22.390625 16.519531 -21.726562 17.40625 -20.875 C 18.289062 -20.019531 18.984375 -19.03125 19.484375 -17.90625 C 19.984375 -16.789062 20.234375 -15.59375 20.234375 -14.3125 C 20.234375 -12.195312 19.753906 -10.378906 18.796875 -8.859375 C 17.847656 -7.335938 16.550781 -6.195312 14.90625 -5.4375 L 20 0 L 13.484375 0 Z M 7.15625 -8.515625 L 9.1875 -8.515625 C 11.125 -8.515625 12.609375 -8.976562 13.640625 -9.90625 C 14.671875 -10.832031 15.1875 -12.171875 15.1875 -13.921875 C 15.1875 -14.898438 15 -15.78125 14.625 -16.5625 C 14.25 -17.34375 13.6875 -17.96875 12.9375 -18.4375 C 12.1875 -18.914062 11.25 -19.15625 10.125 -19.15625 L 7.15625 -19.15625 Z M 7.15625 -8.515625 "/></g></g></g><g fill="#ffffff" fill-opacity="1"><g transform="translate(178.818785, 336.51358)"><g><path d="M 11.328125 0 L 6.421875 0 L 6.421875 -19.15625 L 0.59375 -19.15625 L 0.59375 -23.578125 L 17.53125 -23.578125 L 17.53125 -19.15625 L 11.328125 -19.15625 Z M 11.328125 0 "/></g></g></g><g fill="#ffffff" fill-opacity="1"><g transform="translate(203.279579, 336.51358)"><g><path d="M 16.875 0 L 2.25 0 L 2.25 -23.578125 L 14.78125 -23.578125 L 14.78125 -19.15625 L 7.15625 -19.15625 L 7.15625 -14.75 L 16.015625 -14.75 L 16.015625 -10.359375 L 7.15625 -10.359375 L 7.15625 -4.4375 L 16.875 -4.4375 Z M 16.875 0 "/></g></g></g><g fill="#ffffff" fill-opacity="1"><g transform="translate(227.740374, 336.51358)"><g><path d="M 9.625 -4.078125 L 7.15625 -4.078125 L 7.15625 0 L 2.25 0 L 2.25 -23.578125 L 10.453125 -23.578125 C 11.835938 -23.578125 13.117188 -23.335938 14.296875 -22.859375 C 15.484375 -22.390625 16.519531 -21.726562 17.40625 -20.875 C 18.289062 -20.019531 18.984375 -19.03125 19.484375 -17.90625 C 19.984375 -16.789062 20.234375 -15.59375 20.234375 -14.3125 C 20.234375 -12.195312 19.753906 -10.378906 18.796875 -8.859375 C 17.847656 -7.335938 16.550781 -6.195312 14.90625 -5.4375 L 20 0 L 13.484375 0 Z M 7.15625 -8.515625 L 9.1875 -8.515625 C 11.125 -8.515625 12.609375 -8.976562 13.640625 -9.90625 C 14.671875 -10.832031 15.1875 -12.171875 15.1875 -13.921875 C 15.1875 -14.898438 15 -15.78125 14.625 -16.5625 C 14.25 -17.34375 13.6875 -17.96875 12.9375 -18.4375 C 12.1875 -18.914062 11.25 -19.15625 10.125 -19.15625 L 7.15625 -19.15625 Z M 7.15625 -8.515625 "/></g></g></g><g fill="#ffffff" fill-opacity="1"><g transform="translate(255.428505, 336.51358)"><g><path d="M 7.921875 -10.453125 C 5.867188 -10.679688 4.226562 -11.394531 3 -12.59375 C 1.78125 -13.800781 1.171875 -15.332031 1.171875 -17.1875 C 1.171875 -18.175781 1.375 -19.085938 1.78125 -19.921875 C 2.195312 -20.753906 2.742188 -21.476562 3.421875 -22.09375 C 4.097656 -22.707031 4.84375 -23.175781 5.65625 -23.5 C 6.46875 -23.832031 7.285156 -24 8.109375 -24 C 9.285156 -24 10.410156 -23.757812 11.484375 -23.28125 C 12.566406 -22.8125 13.5625 -22.035156 14.46875 -20.953125 L 10.609375 -18.140625 C 10.285156 -18.472656 9.890625 -18.75 9.421875 -18.96875 C 8.960938 -19.195312 8.523438 -19.3125 8.109375 -19.3125 C 7.453125 -19.3125 6.921875 -19.125 6.515625 -18.75 C 6.117188 -18.382812 5.921875 -17.875 5.921875 -17.21875 C 5.921875 -16.6875 6.15625 -16.203125 6.625 -15.765625 C 7.101562 -15.335938 7.96875 -15.082031 9.21875 -15 C 10.5625 -14.914062 11.785156 -14.566406 12.890625 -13.953125 C 14.003906 -13.347656 14.894531 -12.492188 15.5625 -11.390625 C 16.226562 -10.296875 16.5625 -8.988281 16.5625 -7.46875 C 16.5625 -5.945312 16.1875 -4.585938 15.4375 -3.390625 C 14.6875 -2.203125 13.703125 -1.269531 12.484375 -0.59375 C 11.273438 0.0703125 9.972656 0.40625 8.578125 0.40625 C 7.222656 0.40625 5.890625 0.140625 4.578125 -0.390625 C 3.273438 -0.929688 2.066406 -1.8125 0.953125 -3.03125 L 5 -6.015625 C 5.550781 -5.335938 6.109375 -4.882812 6.671875 -4.65625 C 7.242188 -4.425781 7.878906 -4.3125 8.578125 -4.3125 C 9.378906 -4.3125 10.054688 -4.585938 10.609375 -5.140625 C 11.171875 -5.703125 11.453125 -6.363281 11.453125 -7.125 C 11.453125 -8.070312 11.144531 -8.828125 10.53125 -9.390625 C 9.925781 -9.960938 9.054688 -10.316406 7.921875 -10.453125 Z M 7.921875 -10.453125 "/></g></g></g></svg>